<svg id="solid_line" height="512" viewBox="0 0 64 64" width="512" xmlns="http://www.w3.org/2000/svg"><g><path d="m29.211 45.472c.137-.036.281-.009.398.068.117.078.196.202.217.341l.338 2.204 1.836.202 1.834-.202.338-2.204c.021-.139.1-.263.217-.341.118-.078.261-.104.398-.068l1.284.32.636-.739v-1.701c-.05-1.369-.487-2.45-1.296-3.196-1.363-1.256-3.37-1.182-3.388-1.179-.009 0-.017-.004-.026-.004-.008 0-.014.004-.022.004-.019-.003-2.025-.077-3.388 1.179-.81.746-1.246 1.828-1.297 3.214v1.683l.636.739zm3.537-1.679 1.875-1.688c.205-.185.521-.169.706.037.185.205.168.521-.037.706l-1.875 1.688c-.096.086-.215.128-.334.128-.137 0-.273-.056-.372-.166-.185-.204-.168-.52.037-.705zm-4.078-1.65c.185-.205.5-.221.706-.037l1.875 1.688c.205.185.222.501.037.706-.099.11-.235.166-.372.166-.119 0-.239-.042-.334-.128l-1.875-1.688c-.205-.185-.222-.502-.037-.707z"/><path d="m54.174 43.771-3.919-13.006c-1.063-2.624-4.164-3.66-5.496-3.992.533-.932.812-1.966.65-3.321l-.028-.222c-.459-3.546-1.999-9.718-2.064-9.979-.026-.107-.087-.202-.174-.27l-6.916-5.5c-.071-.057-.157-.093-.248-.105l-3.917-.5c-.021-.002-.041.005-.062.005-.022 0-.042-.008-.065-.005l-3.917.5c-.09.012-.176.048-.248.105l-6.916 5.5c-.086.068-.147.163-.174.27-.065.261-1.604 6.432-2.063 9.973l-.033.256c-.159 1.339.119 2.365.652 3.293-1.334.334-4.434 1.378-5.509 4.035l-3.902 12.963c-.096.203-.323.823-.057 1.755.533 1.866 2.636 3.785 6.238 5.707v1.315c0 .029.012.054.017.082h-2.089c-.276 0-.5.224-.5.5v1.165c0 1.562 1.27 2.832 2.83 2.832h31.471c1.561 0 2.83-1.271 2.83-2.832v-1.165c0-.276-.224-.5-.5-.5h-2.089c.005-.028.017-.053.017-.082v-1.315c3.602-1.921 5.706-3.84 6.238-5.707.267-.932.04-1.552-.057-1.755zm-34.592-20.198.028-.213c.411-3.173 1.75-8.682 2.001-9.701l6.673-5.307 3.716-.475 3.715.474 6.673 5.307c.251 1.019 1.59 6.528 2.002 9.707l.03.234c.255 2.144-.817 3.294-2.441 5.036-.786.843-1.677 1.799-2.554 3.032-.08.112-.106.245-.085.37h-4.452c3.204-1.019 4.032-3.568 4.088-3.776l.476-4.383 1.728.555c.051.016.102.024.153.024.211 0 .408-.135.476-.347.084-.263-.06-.544-.323-.629l-9.333-3c-.019-.006-.037-.002-.056-.006-.032-.007-.063-.01-.096-.01s-.064.003-.096.01c-.019.004-.038 0-.057.006l-9.333 3c-.263.084-.408.366-.323.629.068.212.265.347.476.347.051 0 .102-.008.153-.024l1.729-.556.494 4.476c.041.134.866 2.668 4.066 3.684h-4.449c.021-.125-.006-.258-.085-.37-.877-1.233-1.768-2.188-2.554-3.032-1.626-1.741-2.698-2.892-2.44-5.062zm6.71 21.666v-1.887c.062-1.686.608-3.005 1.626-3.939 1.639-1.502 3.889-1.443 4.082-1.436.193-.007 2.443-.066 4.082 1.436 1.018.934 1.565 2.253 1.626 3.921v1.905c0 .12-.043.235-.121.326l-.958 1.113c-.123.144-.317.207-.5.159l-1.051-.262-.313 2.041c-.034.224-.214.396-.439.421l-2.271.25c-.019.002-.037.003-.055.003-.018 0-.036-.001-.054-.003l-2.271-.25c-.225-.025-.405-.198-.439-.421l-.313-2.041-1.051.262c-.18.049-.376-.015-.5-.159l-.958-1.113c-.08-.09-.122-.206-.122-.326zm5.125-20.7c0 .276-.224.5-.5.5h-3.167c-.276 0-.5-.224-.5-.5s.224-.5.5-.5h3.167c.276 0 .5.224.5.5zm-15.411 10.329v7.976c-1.105-.291-2.33.206-2.392.232-.254.107-.373.401-.266.655.081.19.266.305.46.305.065 0 .131-.013.195-.04.012-.005 1.242-.496 2.002-.09v1.958 4.225c-6.368-3.537-5.29-5.866-5.283-5.879.02-.034.036-.07.047-.108l3.9-12.96c.995-2.455 4.363-3.308 5.171-3.48.422.547.912 1.083 1.446 1.657.717.769 1.523 1.643 2.313 2.72h-4.765c-1.558-.002-2.828 1.268-2.828 2.829zm33.559 18.762v.665c0 1.01-.821 1.832-1.83 1.832h-31.471c-1.009 0-1.83-.822-1.83-1.832v-.665zm-1.572-3.541v-4.446c0-.071-.015-.137-.042-.198.026-.061.042-.127.042-.198v-1.342c.637-.336 1.649-.055 2.003.093.254.107.547-.013.654-.268.107-.254-.012-.546-.266-.654-.063-.026-1.288-.522-2.392-.232v-7.975c0-1.561-1.27-2.831-2.83-2.831h-4.765c.79-1.077 1.596-1.951 2.313-2.72.534-.573 1.024-1.109 1.446-1.657.807.171 4.175 1.02 5.157 3.437l3.916 13.004c.009.029.027.07.041.097.012.023 1.09 2.353-5.277 5.89z"/></g></svg>